<svg width="55" height="20" viewBox="0 0 55 20" fill="none" xmlns="http://www.w3.org/2000/svg">
<path d="M10.869 13.3524C10.869 14.4297 10.4903 15.2777 9.73297 15.8964C8.97563 16.5044 7.9303 16.8084 6.59697 16.8084H1.84497V5.32037H6.45297C7.71163 5.32037 8.70363 5.58704 9.42897 6.12037C10.165 6.6537 10.533 7.4217 10.533 8.42437C10.533 8.9257 10.405 9.3737 10.149 9.76837C9.89297 10.163 9.52497 10.5044 9.04497 10.7924C9.63164 11.0377 10.0796 11.3737 10.389 11.8004C10.709 12.227 10.869 12.7444 10.869 13.3524ZM6.21297 7.70437H4.58097V9.68837H6.21297C6.7143 9.68837 7.0823 9.5977 7.31697 9.41637C7.5623 9.23504 7.68497 8.9897 7.68497 8.68037C7.68497 8.3817 7.5623 8.14704 7.31697 7.97637C7.0823 7.79504 6.7143 7.70437 6.21297 7.70437ZM6.35697 12.0724H4.58097V14.4244H6.35697C6.9223 14.4244 7.3383 14.3177 7.60497 14.1044C7.8823 13.891 8.02097 13.603 8.02097 13.2404C8.02097 12.8884 7.8823 12.6057 7.60497 12.3924C7.3383 12.179 6.9223 12.0724 6.35697 12.0724ZM14.9202 16.8084H11.8962V5.32037H16.6002C18.1576 5.32037 19.3576 5.65637 20.2002 6.32837C21.0536 6.9897 21.4802 7.9337 21.4802 9.16037C21.4802 9.89637 21.2669 10.5577 20.8402 11.1444C20.4242 11.7204 19.8269 12.1737 19.0482 12.5044L21.8642 16.8084H18.2642L15.9122 12.9844H14.9202V16.8084ZM14.9202 7.81637V10.4884H16.4722C17.1442 10.4884 17.6402 10.3817 17.9602 10.1684C18.2802 9.95504 18.4402 9.61904 18.4402 9.16037C18.4402 8.7017 18.2802 8.3657 17.9602 8.15237C17.6402 7.92837 17.1442 7.81637 16.4722 7.81637H14.9202ZM28.9524 15.8004L28.7764 16.8084H22.1844L24.2164 5.32037H30.6964L30.5044 6.32837H25.1764L24.4724 10.3764H29.3524L29.1764 11.3844H24.2964L23.5124 15.8004H28.9524ZM33.7809 16.8084H30.2129L33.7329 10.9524L30.6289 5.32037H34.1489L36.0529 9.11237L38.1329 5.32037H41.5089L38.2769 11.0644L41.7329 16.8084H38.1489L35.9729 12.8564L33.7809 16.8084ZM44.9641 12.2964H49.8441L50.6281 14.6804H44.1641L44.9641 12.2964ZM50.1161 16.8084L47.4281 8.64837L44.6601 16.8084H41.6041L45.8601 5.32037H49.1721L53.3801 16.8084H50.1161Z" fill="white"/>
</svg>
